<?xml version="1.0" encoding="utf-8"?>
<!-- Uploaded to: SVG Repo, www.svgrepo.com, Generator: SVG Repo Mixer Tools -->
<svg width="800px" height="800px" viewBox="0 0 1024 1024" class="icon"  version="1.1" xmlns="http://www.w3.org/2000/svg"><path d="M715.637 960h171.897C920.348 960 960 932.759 960 898.909V125.091C960 91.243 920.348 64 887.534 64H113.716C77.004 64 64 96.892 64 125.091v773.818C64 927.109 77.004 960 113.716 960h439.012V634.182H410.181c-11.257 0-20.363-9.106-20.363-20.363V491.637c0-11.257 9.106-20.365 20.363-20.365h142.546V328.728c0-99.354 88.056-183.272 192.261-183.272h113.193c11.257 0 20.365 9.106 20.365 20.363V288c0 11.258-9.108 20.365-20.365 20.365h-72.465c-34.444 0-70.079 19.052-70.079 50.908v112h131.17a20.27 20.27 0 0 1 16.507 8.472c3.856 5.291 4.891 12.133 2.823 18.337l-40.728 122.181a20.403 20.403 0 0 1-19.33 13.919h-90.442V960z" fill="#2577FF" /><path d="M807.708 451.723h-92.071v19.549h112.288c-0.161-3.938-1.326-7.809-3.711-11.078a20.263 20.263 0 0 0-16.506-8.471zM513.629 940.451H75.445C83.3 951.952 95.599 960 113.716 960h439.012V634.183H513.63v306.268zM839.283 145.456c-0.451-10.855-9.231-19.549-20.198-19.549H705.89c-104.205 0-192.261 83.919-192.261 183.272v142.544H371.083c-11.257 0-20.363 9.108-20.363 20.365v122.181c0 11.258 9.107 20.364 20.363 20.364h18.899c-0.012-0.286-0.164-0.527-0.164-0.815V491.637c0-11.257 9.106-20.365 20.363-20.365h142.546V328.728c0-99.353 88.056-183.272 192.261-183.272h94.295z" fill="" /><path d="M900.123 65.251c12.221 10.76 20.778 24.748 20.778 40.29V879.36c0 33.85-39.651 61.091-72.467 61.091H715.637V960h171.896C920.348 960 960 932.759 960 898.909V125.091c0-29.6-30.322-54.141-59.877-59.84z" fill="" />
<path opacity="0.15" fill-rule="evenodd" clip-rule="evenodd" d="M3 1C1.89543 1 1 1.89543 1 3V37C1 38.1046 1.89543 39 3 39H18.9C20.0046 39 20.9 38.1046 20.9 37V3C20.9 1.89543 20.0046 1 18.9 1H15.6631V2H6.23676V1H3Z" fill="url(#paint0_linear)"/>
<path d="M8.50854 35.6745C8.13501 35.6745 7.83221 35.9773 7.83221 36.3508C7.83221 36.7243 8.13501 37.0271 8.50854 37.0271V35.6745ZM13.4633 37.0271C13.8368 37.0271 14.1396 36.7243 14.1396 36.3508C14.1396 35.9773 13.8368 35.6745 13.4633 35.6745V37.0271ZM0.400024 29.4141C0.400024 29.7876 0.702827 30.0904 1.07635 30.0904C1.44988 30.0904 1.75268 29.7876 1.75268 29.4141H0.400024ZM1.75268 32.387C1.75268 32.0134 1.44988 31.7106 1.07635 31.7106C0.702827 31.7106 0.400024 32.0134 0.400024 32.387H1.75268ZM20.2192 7.61303C20.2192 7.98656 20.522 8.28936 20.8955 8.28936C21.269 8.28936 21.5718 7.98656 21.5718 7.61303H20.2192ZM21.5718 10.5859C21.5718 10.2124 21.269 9.90956 20.8955 9.90956C20.522 9.90956 20.2192 10.2124 20.2192 10.5859H21.5718ZM18.48 38.6473H3.49181V40H18.48V38.6473ZM3.49181 1.35266H6.52662V0H3.49181V1.35266ZM5.8503 1.69206H7.20295V0.676328H5.8503V1.69206ZM7.49281 3.33457H14.4791V1.98191H7.49281V3.33457ZM6.52662 1.35266H15.4452V0H6.52662V1.35266ZM15.4452 1.35266H18.48V0H15.4452V1.35266ZM16.1216 1.69206V0.676328H14.7689V1.69206H16.1216ZM8.50854 37.0271H13.4633V35.6745H8.50854V37.0271ZM1.75268 29.4141V3.09179H0.400024V29.4141H1.75268ZM1.75268 36.9082V32.387H0.400024V36.9082H1.75268ZM20.2192 3.09179V7.61303H21.5718V3.09179H20.2192ZM20.2192 10.5859V36.9082H21.5718V10.5859H20.2192ZM14.4791 3.33457C15.3862 3.33457 16.1216 2.5992 16.1216 1.69206H14.7689C14.7689 1.85214 14.6392 1.98191 14.4791 1.98191V3.33457ZM3.49181 38.6473C2.53132 38.6473 1.75268 37.8687 1.75268 36.9082H0.400024C0.400024 38.6157 1.78427 40 3.49181 40V38.6473ZM18.48 40C20.1876 40 21.5718 38.6157 21.5718 36.9082H20.2192C20.2192 37.8687 19.4405 38.6473 18.48 38.6473V40ZM18.48 1.35266C19.4405 1.35266 20.2192 2.13129 20.2192 3.09179H21.5718C21.5718 1.38424 20.1876 0 18.48 0V1.35266ZM5.8503 1.69206C5.8503 2.5992 6.58567 3.33457 7.49281 3.33457V1.98191C7.33272 1.98191 7.20295 1.85214 7.20295 1.69206H5.8503ZM3.49181 0C1.78427 0 0.400024 1.38424 0.400024 3.09179H1.75268C1.75268 2.13129 2.53132 1.35266 3.49181 1.35266V0Z" fill="url(#paint1_linear)"/>
<defs>
<linearGradient id="paint0_linear" x1="2.12767" y1="1" x2="30.7018" y2="17.5237" gradientUnits="userSpaceOnUse">
<stop offset="0.259336" stop-color="#FFDB6E"/>
<stop offset="1" stop-color="#FFBC5E"/>
</linearGradient>
<linearGradient id="paint1_linear" x1="1.59976" y1="8.08974e-07" x2="31.8368" y2="17.6727" gradientUnits="userSpaceOnUse">
<stop offset="0.259336" stop-color="#FFDB6E"/>
<stop offset="1" stop-color="#FFBC5E"/>
</linearGradient>
</defs>
</svg>